<svg xmlns="http://www.w3.org/2000/svg" viewBox="160 285 60 30" width="120" height="60" aria-hidden="true"><path d="M185.223 291.496c.04-.017.08-.03.122-.046a8.217 8.217 0 0 1 2.76-.47 8.304 8.304 0 0 1 4.573 15.234c-.086.059-.174.111-.259.165a8.272 8.272 0 0 1-4.315 1.206 8.303 8.303 0 0 1-8.304-8.302 8.306 8.306 0 0 1 5.423-7.787Zm30.379-.1-11.725-5.285c-.373 4.755-1.205 9.325-3.253 13.397-.805 1.745-2.3 4.567-4.106 5.911 1.66-2.404 1.95-4.381 1.95-6.136 0-3.205-1.459-6.073-3.746-7.973a10.28 10.28 0 0 0-3.25-1.829 10.305 10.305 0 0 0-3.368-.562c-1.281 0-2.511.235-3.647.659a1.343 1.343 0 0 1-.15.061c-3.845 1.519-6.568 5.264-6.568 9.644 0 1.51.323 2.933.901 4.227.005.014.01.021.015.036a10.456 10.456 0 0 0 1.813 2.747c-3.644-2.118-9.391-5.709-13.209-8.312l-.002-.003a78.183 78.183 0 0 1-1.552-1.078v2.678a113.037 113.037 0 0 0 7.183 4.655c3.926 2.286 7.839 4.64 12.219 5.837 4.05 1.173 8.996.909 12.852-.52.94-.32 1.854-.726 2.745-1.196l.303-.159c6.467-3.532 11.615-10.545 14.595-16.799Z" fill="#f0f"/><path d="M185.223 291.496c.04-.017.08-.03.122-.046a8.217 8.217 0 0 1 2.76-.47 8.304 8.304 0 0 1 4.573 15.234c-.086.059-.174.111-.259.165a8.272 8.272 0 0 1-4.315 1.206 8.303 8.303 0 0 1-8.304-8.302 8.306 8.306 0 0 1 5.423-7.787Zm30.379-.1-11.725-5.285c-.373 4.755-1.205 9.325-3.253 13.397-.805 1.745-2.3 4.567-4.106 5.911 1.66-2.404 1.95-4.381 1.95-6.136 0-3.205-1.459-6.073-3.746-7.973a10.28 10.28 0 0 0-3.25-1.829 10.305 10.305 0 0 0-3.368-.562c-1.281 0-2.511.235-3.647.659a1.343 1.343 0 0 1-.15.061c-3.845 1.519-6.568 5.264-6.568 9.644 0 1.51.323 2.933.901 4.227.005.014.01.021.015.036a10.456 10.456 0 0 0 1.813 2.747c-3.644-2.118-9.391-5.709-13.209-8.312l-.002-.003a78.183 78.183 0 0 1-1.552-1.078v2.678a113.037 113.037 0 0 0 7.183 4.655c3.926 2.286 7.839 4.64 12.219 5.837 4.05 1.173 8.996.909 12.852-.52.94-.32 1.854-.726 2.745-1.196l.303-.159c6.467-3.532 11.615-10.545 14.595-16.799Z"/></svg>